{
    "asset": {
        "generator": "https://3dviewer.net",
        "version": "2.0"
    },
    "scene": 0,
    "scenes": [
        {
            "nodes": [
                0
            ]
        }
    ],
    "nodes": [
        {
            "mesh": 0
        }
    ],
    "materials": [
        {
            "name": "Material",
            "pbrMetallicRoughness": {
                "baseColorFactor": [
                    1,
                    1,
                    1,
                    1
                ],
                "baseColorTexture": {
                    "index": 0
                }
            },
            "emissiveFactor": [
                0,
                0,
                0
            ],
            "doubleSided": true,
            "alphaMode": "OPAQUE"
        }
    ],
    "meshes": [
        {
            "name": "Zebra_SHP2_0_Zebra_Mat_0",
            "primitives": [
                {
                    "attributes": {
                        "POSITION": 1,
                        "NORMAL": 2,
                        "TEXCOORD_0": 3
                    },
                    "mode": 4,
                    "material": 0,
                    "indices": 0
                }
            ]
        }
    ],
    "buffers": [
        {
            "uri": "model.bin",
            "byteLength": 373112
        }
    ],
    "bufferViews": [
        {
            "buffer": 0,
            "byteOffset": 0,
            "byteLength": 147672
        },
        {
            "buffer": 0,
            "byteOffset": 147672,
            "byteLength": 84540
        },
        {
            "buffer": 0,
            "byteOffset": 232212,
            "byteLength": 84540
        },
        {
            "buffer": 0,
            "byteOffset": 316752,
            "byteLength": 56360
        }
    ],
    "accessors": [
        {
            "bufferView": 0,
            "byteOffset": 0,
            "componentType": 5125,
            "count": 36918,
            "type": "SCALAR"
        },
        {
            "bufferView": 1,
            "byteOffset": 0,
            "componentType": 5126,
            "count": 7045,
            "min": [
                -0.37285855259921097,
                -1.5016510668407117,
                -2.2960100736277407
            ],
            "max": [
                0.38222021116284133,
                1.769324461007635,
                -0.20089991520237802
            ],
            "type": "VEC3"
        },
        {
            "bufferView": 2,
            "byteOffset": 0,
            "componentType": 5126,
            "count": 7045,
            "type": "VEC3"
        },
        {
            "bufferView": 3,
            "byteOffset": 0,
            "componentType": 5126,
            "count": 7045,
            "type": "VEC2"
        }
    ],
    "images": [
        {
            "uri": "Binary_0.jpeg"
        }
    ],
    "textures": [
        {
            "source": 0
        }
    ]
}