{
    "asset": {
        "generator": "https://3dviewer.net",
        "version": "2.0"
    },
    "scene": 0,
    "scenes": [
        {
            "nodes": [
                0
            ]
        }
    ],
    "nodes": [
        {
            "mesh": 0
        }
    ],
    "materials": [
        {
            "name": "Cheetah_Material",
            "pbrMetallicRoughness": {
                "baseColorFactor": [
                    1,
                    1,
                    1,
                    1
                ],
                "baseColorTexture": {
                    "index": 0
                },
                "metallicFactor": 0.5,
                "roughnessFactor": 1
            },
            "emissiveFactor": [
                0,
                0,
                0
            ],
            "doubleSided": true,
            "alphaMode": "OPAQUE",
            "normalTexture": {
                "index": 1
            }
        }
    ],
    "meshes": [
        {
            "name": "Mesh.002",
            "primitives": [
                {
                    "attributes": {
                        "POSITION": 1,
                        "NORMAL": 2,
                        "TEXCOORD_0": 3
                    },
                    "mode": 4,
                    "material": 0,
                    "indices": 0
                }
            ]
        }
    ],
    "buffers": [
        {
            "uri": "model.bin",
            "byteLength": 303936
        }
    ],
    "bufferViews": [
        {
            "buffer": 0,
            "byteOffset": 0,
            "byteLength": 118560
        },
        {
            "buffer": 0,
            "byteOffset": 118560,
            "byteLength": 69516
        },
        {
            "buffer": 0,
            "byteOffset": 188076,
            "byteLength": 69516
        },
        {
            "buffer": 0,
            "byteOffset": 257592,
            "byteLength": 46344
        }
    ],
    "accessors": [
        {
            "bufferView": 0,
            "byteOffset": 0,
            "componentType": 5125,
            "count": 29640,
            "type": "SCALAR"
        },
        {
            "bufferView": 1,
            "byteOffset": 0,
            "componentType": 5126,
            "count": 5793,
            "min": [
                -0.02514370017593137,
                -0.0010956089247204832,
                -0.0918077161799988
            ],
            "max": [
                0.020397411948579247,
                0.10630905314681416,
                0.10306780505210064
            ],
            "type": "VEC3"
        },
        {
            "bufferView": 2,
            "byteOffset": 0,
            "componentType": 5126,
            "count": 5793,
            "type": "VEC3"
        },
        {
            "bufferView": 3,
            "byteOffset": 0,
            "componentType": 5126,
            "count": 5793,
            "type": "VEC2"
        }
    ],
    "images": [
        {
            "uri": "Binary_1.png"
        },
        {
            "uri": "Binary_0.png"
        }
    ],
    "textures": [
        {
            "source": 0
        },
        {
            "source": 1
        }
    ]
}